<?xml version="1.0" encoding="utf-8"?>
<!-- Generator: Adobe Illustrator 16.0.0, SVG Export Plug-In . SVG Version: 6.00 Build 0)  -->
<!DOCTYPE svg PUBLIC "-//W3C//DTD SVG 1.0//EN" "http://www.w3.org/TR/2001/REC-SVG-20010904/DTD/svg10.dtd">
<svg version="1.0" id="Layer_1" xmlns="http://www.w3.org/2000/svg" xmlns:xlink="http://www.w3.org/1999/xlink" x="0px" y="0px"
	 width="100px" height="100px" viewBox="0 0 100 100" enable-background="new 0 0 100 100" xml:space="preserve">
<path d="M42.419,73.332H14.247c-2.75,0-4.632,2.22-4.18,4.932l1.957,11.734h32.619l1.957-11.734
	C47.051,75.552,45.173,73.332,42.419,73.332z M28.334,84.998c-1.38,0-2.5-1.119-2.5-2.5c0-1.38,1.12-2.499,2.5-2.499
	c1.38,0,2.5,1.119,2.5,2.499C30.834,83.879,29.714,84.998,28.334,84.998z"/>
<path d="M36.944,68.332c0.859-1.478,1.387-3.17,1.387-4.999c0-5.521-4.479-10-9.996-10c-5.521,0-10,4.479-10,10
	c0,1.829,0.527,3.521,1.387,4.999H36.944z"/>
<path d="M85.754,73.332H57.578c-2.751,0-4.633,2.22-4.177,4.932l1.956,11.734h32.616l1.959-11.734
	C90.386,75.552,88.507,73.332,85.754,73.332z M71.666,84.998c-1.381,0-2.5-1.119-2.5-2.5c0-1.38,1.119-2.499,2.5-2.499
	c1.38,0,2.499,1.119,2.499,2.499C74.165,83.879,73.046,84.998,71.666,84.998z"/>
<path d="M80.275,68.332c0.859-1.478,1.39-3.17,1.39-4.999c0-5.521-4.479-10-9.999-10s-10,4.479-10,10c0,1.829,0.53,3.521,1.39,4.999
	H80.275z"/>
<path d="M64.088,30.001H35.909c-2.75,0-4.628,2.22-4.176,4.931l1.957,11.735h32.619l1.96-11.735
	C68.72,32.221,66.842,30.001,64.088,30.001z M49.997,41.667c-1.381,0-2.5-1.12-2.5-2.5c0-1.38,1.119-2.5,2.5-2.5
	c1.38,0,2.5,1.12,2.5,2.5C52.497,40.547,51.377,41.667,49.997,41.667z"/>
<path d="M58.609,25.001c0.859-1.478,1.39-3.17,1.39-5c0-5.521-4.479-10-10.002-10c-5.521,0-10,4.479-10,10
	c0,1.829,0.531,3.522,1.39,5H58.609z"/>
</svg>
