<?xml version="1.0" encoding="utf-8"?>
<!-- Generator: Adobe Illustrator 25.4.1, SVG Export Plug-In . SVG Version: 6.00 Build 0)  -->
<svg version="1.1" id="Solid" xmlns="http://www.w3.org/2000/svg" xmlns:xlink="http://www.w3.org/1999/xlink" x="0px" y="0px"
	 viewBox="0 0 512 512" enable-background="new 0 0 512 512" xml:space="preserve">
<g>
	<path d="M168.768,159.914c-30.9-8.76-56.744-21.981-69.763-29.379c-2.602-1.473-5.305-2.32-7.816-2.438
		C38.384,124.988,19.396,168,14.236,183.781l51.609-6.449c5.609-0.723,10.887,2.492,12.816,7.805l18.562,51.121
		c0.84,2.395,2.102,4.461,3.762,6.188c6.4,7.208,16.859,8.464,24.834,3.295c0.889-8.362,3.407-16.586,7.686-24.1L168.768,159.914z"
		/>
	<path d="M499.486,179.574c-1.23-4.844-3.18-9.008-5.938-12.664c-10.25-13.157-89.75-8.911-121.047-7.042V212.5
		c0,1.59-0.234,3.117-0.586,4.601c0.83,0.048,1.68,0.075,2.508,0.125c26.855,1.57,108.625,6.352,119.16-7.184
		c2.656-3.457,4.652-7.711,5.926-12.621C500.861,191.641,500.861,185.441,499.486,179.574z M464.708,208.531
		c-11.027,0-20-8.973-20-20s8.973-20,20-20s20,8.973,20,20S475.736,208.531,464.708,208.531z"/>
	<path d="M352.501,224.5c6.617,0,12-5.383,12-12v-56c0-6.617-5.383-12-12-12s-12,5.383-12,12v56
		C340.501,219.117,345.884,224.5,352.501,224.5z"/>
	<circle cx="464.708" cy="188.531" r="12"/>
	<path d="M316.501,232.5c8.824,0,16-7.176,16-16v-72c0-8.824-7.176-16-16-16s-16,7.176-16,16v72
		C300.501,225.324,307.677,232.5,316.501,232.5z"/>
	<path d="M352.501,232.5c-5.578,0-10.618-2.307-14.25-6.003c-3.805,8.24-12.094,14.003-21.75,14.003
		c-7.426,0-13.991-3.46-18.396-8.773c-1.383,3.144-3.309,6.059-5.814,8.562c-5.293,5.297-12.324,8.211-19.789,8.211
		c-15.438,0-28-12.562-28-28v-3.618c-7.034-0.286-13.735-0.434-19.715-0.382c-2.34,0-4.642,0.118-6.945,0.316l-6.994,6.994
		c22.804,11.382,63.588,39.493,57.63,93.132c-0.227,2.047-1.961,3.559-3.973,3.559c-0.148,0-0.297-0.008-0.445-0.023
		c-2.195-0.246-3.777-2.223-3.535-4.418c5.627-50.664-35.199-76.571-55.66-86.266l-9.536,9.536
		c-0.781,0.781-1.805,1.172-2.828,1.172s-2.047-0.391-2.828-1.172c-1.562-1.562-1.562-4.094,0-5.656l26.674-26.674
		c-6.673-2.454-12.67-4.845-17.314-6.779c-2.043-0.848-3.039-3.203-2.191-5.242s3.172-3.027,5.199-2.168
		c41.918,17.453,76.27,24.387,83.602,16.895c2.27-2.27,4.008-5.352,5.199-9.188c1.547-5.098-1.059-10.664-6.066-12.93
		l-78.992-34.457c-9.588-3.746-20.609-0.773-27.29,6.893c-0.058,0.077-0.139,0.127-0.202,0.199c-0.95,1.116-1.809,2.33-2.559,3.634
		l-35.277,61.75c-9.457,16.605-9.402,37.184,0.148,53.691l45.441,78.645c1.703,3.965,2.457,7.691,2.457,11.52V496.5h136V369.621
		c0-4.164,1.277-8.172,3.695-11.59c17.449-24.898,29.699-52.629,36.402-82.41c3.706-16.456,5.511-33.465,5.528-50.6
		c-0.689-0.037-1.378-0.073-2.074-0.103C364.386,229.502,358.814,232.5,352.501,232.5z"/>
	<path d="M292.501,183.195V132.5c0-11.027-8.973-20-20-20c-5.328,0-10.348,2.082-14.133,5.867
		c-3.785,3.785-5.867,8.805-5.867,14.133v32.281l35.52,15.493C289.697,181.032,291.16,182.056,292.501,183.195z"/>
	<path d="M79.095,209.772l-47.129,5.884c7.486,8.949,26.146,26.221,58.961,25.917c-0.421-0.872-0.91-1.692-1.238-2.627
		L79.095,209.772z"/>
	<path d="M252.501,217.896v2.604c0,11.027,8.973,20,20,20c5.328,0,10.348-2.082,14.133-5.867s5.867-8.805,5.867-14.133v-6.717
		c-0.415,0.484-0.727,1.101-1.172,1.545C284.579,222.229,269.266,221.538,252.501,217.896z"/>
	<path d="M244.501,161.292V124.5c0-11.027-8.973-20-20-20c-5.328,0-10.348,2.082-14.133,5.867s-5.867,8.805-5.867,14.133v19.989
		c1.455,0.341,2.911,0.69,4.332,1.246L244.501,161.292z"/>
</g>
</svg>
