<?xml version="1.0" encoding="utf-8"?>
<!-- Generator: Adobe Illustrator 24.3.0, SVG Export Plug-In . SVG Version: 6.00 Build 0)  -->
<svg version="1.1" id="Layer_1" xmlns="http://www.w3.org/2000/svg" xmlns:xlink="http://www.w3.org/1999/xlink" x="0px" y="0px"
	 viewBox="0 0 64 64" enable-background="new 0 0 64 64" xml:space="preserve">
<polygon points="39.2,40.9 35.6,34.4 35.2,34.5 37.6,41.6 "/>
<polygon points="42.5,39.5 38.5,33.1 37.5,33.6 41.1,40.1 "/>
<polygon points="44.8,38.5 42.4,31.4 40.3,32.3 44.3,38.6 "/>
<path d="M8.1,43.2l2.7-1.1c0.4,0.5,0.9,1,1.4,1.4l-1.1,2.7c-0.2,0.5,0,1.1,0.6,1.3l7.4,2.9c0.1,0,0.2,0.1,0.4,0.1
	c0.1,0,0.3,0,0.4-0.1c0.2-0.1,0.4-0.3,0.5-0.5l1.1-2.7c0.4,0,0.7,0,1.1,0l1.1,2.7c0.2,0.5,0.8,0.8,1.3,0.6l7.4-2.9
	c0.5-0.2,0.8-0.8,0.6-1.3l-1.3-3.3l-3.3-8.2c3,3.5,5.3,7.5,6.7,12c0.7,2.2,1,4.6,1,7.1V60h2V49h2v11h3V49h2v11h2v-9c0,0,0-0.1,0-0.1
	l0.5-4.4c1-8.4,4.4-16.3,9.8-22.8c2.2-3,2.8-6.9,1.5-10.5c-1-2.8-3.2-5.2-5.9-6.4l-4.2-1.9l3.3,9.8c0.1,0.3,0,0.7-0.2,0.9l-4,5
	c-0.1,0.1-0.2,0.2-0.3,0.3l0,0l-14,7l-0.9-1.8l11.2-5.6l-3-0.5c-0.3-0.1-0.6-0.3-0.8-0.6L35.7,8.8l-0.3,0.3
	c-4.5,5.1-6.2,12-4.4,18.5c0.1,0.5-0.1,1-0.6,1.2l-3.7,1.6l-5.2-13.2l-1.1-2.7c-0.1-0.2-0.3-0.4-0.5-0.5c-0.2-0.1-0.5-0.1-0.8,0
	L11.7,17c-0.5,0.2-0.8,0.8-0.6,1.3l1.1,2.7c-0.5,0.4-1,0.9-1.4,1.4l-2.7-1.1c-0.5-0.2-1.1,0-1.3,0.6l-2.9,7.4
	c-0.1,0.2-0.1,0.5,0,0.8c0.1,0.2,0.3,0.4,0.5,0.5L7,31.7c0,0.2,0,0.4,0,0.6c0,0.2,0,0.4,0,0.6l-2.7,1.1c-0.2,0.1-0.4,0.3-0.5,0.5
	c-0.1,0.2-0.1,0.5,0,0.8l2.9,7.4C7,43.1,7.5,43.4,8.1,43.2z M50.6,28.1l0.7,1.9l-5,2l-0.7-1.9L50.6,28.1z M33.6,33.1l9-4
	c0.3-0.1,0.6-0.1,0.8,0c0.3,0.1,0.5,0.3,0.5,0.6l3,9c0.2,0.5-0.1,1-0.5,1.2l-9,4C37.3,44,37.1,44,37,44c-0.1,0-0.3,0-0.4-0.1
	c-0.3-0.1-0.5-0.3-0.5-0.6l-3-9C32.9,33.8,33.1,33.3,33.6,33.1z M21.7,27c0.4,0,0.8,0.1,1.2,0.2l-0.5,1.9C22.2,29,22,29,21.7,29
	c-1.7,0-3,1.3-3,3s1.3,3,3,3c0.9,0,1.7-0.4,2.2-1l1.5,1.3c-0.9,1.1-2.3,1.7-3.8,1.7c-2.8,0-5-2.2-5-5S19,27,21.7,27z"/>
</svg>
