<?xml version="1.0" encoding="UTF-8" standalone="no"?> <svg id="Layer_1" data-name="Layer 1" xmlns="http://www.w3.org/2000/svg" viewBox="0 0 128 128"><defs><style>.cls-1{fill:#3b4551;}.cls-2{fill:#2b77c0;}</style></defs><title>a</title><path class="cls-1" d="M109.59752,59.4473,93.332,55.891a11.1247,11.1247,0,0,1-8.93226-13.01255c.30322-1.62646.77184-4.27313,1.18544-6.4786a51.77813,51.77813,0,0,0-43.1728,0c.4136,2.20547.88222,4.82454,1.18544,6.4786a11.15442,11.15442,0,0,1-8.98728,13.04015L18.40012,59.4473a50.87383,50.87383,0,0,0-5.45873,18.27811L8.58564,119.65758H119.412l-4.35575-41.93217A50.87048,50.87048,0,0,0,109.59752,59.4473ZM63.99882,93.21905a17.54751,17.54751,0,1,1,17.5613-17.5337A17.54258,17.54258,0,0,1,63.99882,93.21905Z"/><path class="cls-2" d="M125.84331,33.77084a25.31261,25.31261,0,0,0-12.53114-14.03477A107.03942,107.03942,0,0,0,65.36565,8.34242c-.2625,0-.51691.01077-.77.02154-.4173.01885-.81037.01885-1.19133,0-.25442-.01077-.50749-.02154-.77-.02154A107.03942,107.03942,0,0,0,14.68783,19.73607,25.31261,25.31261,0,0,0,2.15669,33.77084c-.91,2.58457-.86691,13.07363-.704,17.75009a3.79284,3.79284,0,0,0,4.36551,3.60763l27.49743-5.993A4.21578,4.21578,0,0,0,36.833,44.17106c-.58018-3.01264-1.68266-9.37715-1.88324-10.53752.50749-1.23306,5.05472-10.40291,27.9605-10.40291.206,0,.39711.00808.58826.01346l.51153.01615.49134-.01615c.19115-.00538.3823-.01346.58826-.01346,22.92059,0,27.46109,9.18062,27.96185,10.40291-.20057,1.15767-1.3044,7.52488-1.88458,10.53752a4.21382,4.21382,0,0,0,3.473,4.95646l27.54186,6.00106a3.65187,3.65187,0,0,0,.56672.04308,3.7913,3.7913,0,0,0,3.79878-3.65071C126.71022,46.84448,126.7533,36.35542,125.84331,33.77084Z"/></svg>