<?xml version="1.0" encoding="utf-8"?>
<!-- Generator: Adobe Illustrator 23.0.3, SVG Export Plug-In . SVG Version: 6.00 Build 0)  -->
<svg version="1.1" id="Icons" xmlns="http://www.w3.org/2000/svg" xmlns:xlink="http://www.w3.org/1999/xlink" x="0px" y="0px"
	 viewBox="0 0 32 32" style="enable-background:new 0 0 32 32;" xml:space="preserve">
<style type="text/css">
	.st0{fill:none;stroke:#000000;stroke-width:2;stroke-linecap:round;stroke-linejoin:round;stroke-miterlimit:10;}
</style>
<path class="st0" d="M3,17v10c0,1.1,0.9,2,2,2h6.2c0.5,0,1-0.2,1.4-0.6l2-2c0.8-0.8,2-0.8,2.8,0l2,2c0.4,0.4,0.9,0.6,1.4,0.6H27
	c1.1,0,2-0.9,2-2V17c0-1.1-0.9-2-2-2H5C3.9,15,3,15.9,3,17z"/>
<circle class="st0" cx="9" cy="22" r="3"/>
<circle class="st0" cx="23" cy="22" r="3"/>
<g>
	<path class="st0" d="M20.4,12c-1.1-1.2-2.7-2-4.4-2s-3.3,0.8-4.4,2"/>
</g>
<g>
	<path class="st0" d="M23.2,9.2C21.4,7.2,18.8,6,16,6s-5.4,1.2-7.2,3.2"/>
</g>
<g>
	<path class="st0" d="M26,6.3C23.5,3.7,19.9,2,16,2S8.5,3.7,6,6.3"/>
</g>
</svg>
